<svg width="16" height="17" viewBox="0 0 16 17" fill="none" xmlns="http://www.w3.org/2000/svg">
<path d="M8.23444 8.43609C7.39058 8.43609 6.56566 8.1887 5.86401 7.72522C5.16236 7.26173 4.61549 6.60296 4.29256 5.83222C3.96962 5.06147 3.88513 4.21336 4.04976 3.39514C4.21439 2.57692 4.62075 1.82534 5.21745 1.23544C5.81416 0.645534 6.5744 0.243804 7.40206 0.0810504C8.22971 -0.0817037 9.08759 0.00182759 9.86723 0.321081C10.6469 0.640335 11.3132 1.18097 11.782 1.87463C12.2509 2.56828 12.5011 3.38379 12.5011 4.21804C12.4999 5.33636 12.0499 6.40851 11.25 7.19928C10.4502 7.99005 9.36565 8.43484 8.23444 8.43609ZM8.23444 1.17168C7.62498 1.17168 7.02921 1.35035 6.52246 1.68508C6.01572 2.01982 5.62076 2.4956 5.38753 3.05225C5.1543 3.6089 5.09327 4.22142 5.21217 4.81236C5.33107 5.4033 5.62455 5.94611 6.05551 6.37215C6.48646 6.79819 7.03553 7.08833 7.63328 7.20587C8.23102 7.32342 8.85061 7.26309 9.41367 7.03252C9.97674 6.80194 10.458 6.41148 10.7966 5.91051C11.1352 5.40954 11.3159 4.82056 11.3159 4.21804C11.315 3.41038 10.99 2.63607 10.4123 2.06497C9.83465 1.49386 9.05141 1.17261 8.23444 1.17168Z" fill="white"/>
<path d="M15.4074 16.9999C15.2502 16.9999 15.0995 16.9382 14.9884 16.8283C14.8772 16.7184 14.8148 16.5694 14.8148 16.414V14.9658C14.8136 13.8534 14.366 12.7869 13.5703 12.0004C12.7747 11.2138 11.6959 10.7713 10.5707 10.7701H5.42933C4.3041 10.7713 3.22531 11.2138 2.42965 12.0004C1.63399 12.7869 1.18644 13.8534 1.18519 14.9658V16.414C1.18519 16.5694 1.12275 16.7184 1.01162 16.8283C0.900486 16.9382 0.749758 16.9999 0.592593 16.9999C0.435427 16.9999 0.284699 16.9382 0.173566 16.8283C0.0624337 16.7184 0 16.5694 0 16.414V14.9658C0.00172508 13.5428 0.574296 12.1786 1.59212 11.1724C2.60994 10.1661 3.98991 9.60009 5.42933 9.59839H10.5701C12.0096 9.59994 13.3897 10.1659 14.4077 11.1722C15.4256 12.1784 15.9983 13.5427 16 14.9658V16.414C16 16.5694 15.9376 16.7184 15.8264 16.8283C15.7153 16.9382 15.5646 16.9999 15.4074 16.9999Z" fill="white"/>
</svg>
